<?xml version="1.0" standalone="no"?>
<!DOCTYPE svg PUBLIC "-//W3C//DTD SVG 20010904//EN"
 "http://www.w3.org/TR/2001/REC-SVG-20010904/DTD/svg10.dtd">
<svg version="1.0" xmlns="http://www.w3.org/2000/svg"
 width="758.000000pt" height="758.000000pt" viewBox="0 0 758.000000 758.000000"
 preserveAspectRatio="xMidYMid meet">
<metadata>
Created by potrace 1.11, written by Peter Selinger 2001-2013
</metadata>
<g transform="translate(0.000000,758.000000) scale(0.100000,-0.100000)"
fill="#000000" stroke="none">
<path d="M277 7109 c-54 -13 -112 -44 -159 -87 -83 -75 -119 -166 -114 -286 4
-73 21 -121 83 -226 22 -38 232 -400 262 -453 95 -164 136 -235 181 -312 28
-49 62 -108 75 -130 21 -37 277 -482 410 -710 32 -55 68 -119 81 -142 13 -23
54 -93 90 -155 37 -62 78 -133 92 -158 14 -25 200 -347 414 -717 213 -370 396
-687 407 -705 10 -18 76 -132 146 -253 70 -121 137 -236 148 -255 21 -39 278
-484 507 -880 81 -140 157 -271 167 -290 11 -19 52 -89 90 -155 152 -260 257
-443 286 -495 67 -123 141 -194 231 -222 46 -14 140 -17 188 -7 120 26 192 88
284 249 38 66 77 135 88 153 55 95 282 488 304 527 14 25 71 124 127 220 56
96 120 207 142 245 22 39 106 185 188 325 81 140 159 275 173 300 30 54 183
319 257 445 29 50 113 196 188 325 74 129 143 249 153 267 11 18 57 98 104
179 116 201 135 234 210 363 36 62 77 134 91 159 35 61 529 918 579 1002 36
61 424 733 468 810 11 19 86 150 167 290 82 140 157 280 168 310 61 174 -15
361 -181 442 l-67 33 -3495 2 c-2015 0 -3511 -3 -3533 -8z m6126 -442 c65 -43
86 -133 45 -192 -12 -19 -86 -73 -182 -134 -89 -56 -289 -185 -446 -286 -157
-102 -314 -202 -350 -224 -36 -23 -123 -79 -195 -125 -71 -47 -191 -124 -265
-171 -74 -48 -211 -136 -305 -196 -490 -317 -521 -333 -684 -376 -80 -21 -120
-25 -236 -26 -122 0 -153 3 -238 26 -99 28 -187 67 -288 128 -30 19 -423 270
-872 559 -450 289 -877 563 -950 610 -300 191 -298 190 -318 235 -30 68 -4
140 61 173 33 16 178 17 2616 17 2468 0 2581 -1 2607 -18z m-5282 -735 c30
-21 268 -198 529 -393 261 -195 520 -388 575 -429 365 -271 866 -646 899 -673
177 -143 300 -349 341 -572 8 -44 17 -136 20 -205 5 -123 11 -264 20 -470 3
-58 7 -168 10 -245 3 -77 7 -187 10 -245 2 -58 7 -168 10 -245 10 -248 14
-347 20 -490 15 -351 17 -315 -15 -347 -33 -33 -77 -37 -109 -10 -11 9 -53 73
-92 142 -40 69 -124 215 -187 325 -63 110 -118 205 -122 210 -4 6 -19 30 -32
55 -14 25 -93 162 -175 305 -83 143 -160 277 -171 297 -12 20 -32 54 -45 75
-13 21 -37 63 -54 93 -16 30 -96 170 -178 310 -81 140 -156 269 -165 285 -26
46 -150 261 -335 580 -92 160 -175 304 -185 320 -26 45 -195 339 -302 525 -53
91 -105 181 -116 200 -10 19 -43 76 -72 125 -29 50 -61 106 -72 125 -11 19
-44 76 -73 125 -82 141 -93 166 -84 197 11 42 36 62 85 67 6 0 35 -16 65 -37z
m5467 6 c38 -37 29 -68 -74 -246 -191 -329 -807 -1398 -824 -1427 -10 -16 -46
-80 -82 -141 -36 -61 -68 -117 -71 -125 -4 -8 -16 -29 -28 -48 -23 -38 -567
-980 -607 -1051 -14 -25 -45 -78 -69 -118 -24 -41 -43 -76 -43 -78 0 -3 -8
-17 -19 -32 -10 -15 -132 -225 -271 -467 -307 -535 -338 -586 -359 -602 -35
-27 -103 -7 -120 36 -11 25 -10 85 4 391 3 69 8 184 10 255 3 72 7 184 10 250
9 193 14 310 20 470 3 83 8 195 10 250 2 55 7 165 10 245 14 363 30 452 112
615 88 174 166 257 418 445 99 74 313 233 475 354 162 121 437 325 610 455
682 508 776 578 795 589 25 15 64 7 93 -20z"/>
</g>
</svg>
