<xml version="1.0" encoding="UTF-8">
<svg version="1.1" viewbox="0 0 6137.8 2007.7" xmlns="http://www.w3.org/2000/svg">
<style>
.st0{fill:#252525;} .st1{clip-path:url(#h);fill:url(#g);} .st2{clip-path:url(#e);fill:url(#d);} .st3{clip-path:url(#b);fill:url(#a);} .st4{clip-path:url(#k);fill:url(#j);} .st5{fill:#F9F9F9;} .st6{fill:#F9F9FA;} 
</style>
<path class="st0" d="m6137.8 1736.4c0 149.8-121.5 271.3-271.3 271.3h-5595.2c-149.8 0-271.3-121.5-271.3-271.3v-1465.1c0-149.8 121.5-271.3 271.3-271.3h5595.2c149.8 0 271.3 121.5 271.3 271.3v1465.1z"></path>
<defs>
    <path d="m1330.1 883.8l-276.7-159.8s-504.2-291.1-533.8-308.2-59.2-6.7-59.2 29v1255.8c0 26.8 21.1 38.4 46.9 23.5 25.7-14.9 546.1-315.3 546.1-315.3l276.7-159.8s234.8-135.6 266-153.6 28.2-42.8 1.9-56.9c-26.3-14.3-267.9-154.7-267.9-154.7z" id="i"></path>
</defs>
<clippath id="h">
    <use xlink:href="#i"></use>
</clippath>
<lineargradient gradienttransform="matrix(12 0 0 12 -47005 14795)" gradientunits="userSpaceOnUse" id="g" x1="3984" x2="3984" y1="-1200.7" y2="-1087.4">
    <stop offset="0" stop-color="#257CB0"></stop>
    <stop offset=".286" stop-color="#4A93B5"></stop>
    <stop offset=".767" stop-color="#78BCBB"></stop>
    <stop offset="1" stop-color="#89CFBD"></stop>
</lineargradient>
<path class="st1" d="m460.4 386.5v1359.6l685.6-679.8-685.6-679.8z"></path>
<defs>
    <path d="m1330.1 883.8l-276.7-159.8s-504.2-291.1-533.8-308.2-59.2-6.7-59.2 29v1255.8c0 26.8 21.1 38.4 46.9 23.5 25.7-14.9 546.1-315.3 546.1-315.3l276.7-159.8s234.8-135.6 266-153.6 28.2-42.8 1.9-56.9c-26.3-14.3-267.9-154.7-267.9-154.7z" id="f"></path>
</defs>
<clippath id="e">
    <use xlink:href="#f"></use>
</clippath>
<lineargradient gradienttransform="matrix(12 0 0 12 -47005 14795)" gradientunits="userSpaceOnUse" id="d" x1="3955.4" x2="4027.9" y1="-1172.6" y2="-1172.6">
    <stop offset="0" stop-color="#52C1AD"></stop>
    <stop offset="1" stop-color="#DEE89A"></stop>
</lineargradient>
<path class="st2" d="m1330.1 883.8l-276.7-159.8-593-342.4v4.9l685.6 679.8 184.1-182.5z"></path>
<defs>
    <path d="m1330.1 883.8l-276.7-159.8s-504.2-291.1-533.8-308.2-59.2-6.7-59.2 29v1255.8c0 26.8 21.1 38.4 46.9 23.5 25.7-14.9 546.1-315.3 546.1-315.3l276.7-159.8s234.8-135.6 266-153.6 28.2-42.8 1.9-56.9c-26.3-14.3-267.9-154.7-267.9-154.7z" id="c"></path>
</defs>
<clippath id="b">
    <use xlink:href="#c"></use>
</clippath>
<lineargradient gradienttransform="matrix(12 0 0 12 -47005 14795)" gradientunits="userSpaceOnUse" id="a" x1="3991.7" x2="3991.7" y1="-1144.1" y2="-1087">
    <stop offset="0" stop-color="#EC413D"></stop>
    <stop offset=".167" stop-color="#DA4452"></stop>
    <stop offset=".575" stop-color="#B0487A"></stop>
    <stop offset=".862" stop-color="#954A92"></stop>
    <stop offset="1" stop-color="#8A4A9D"></stop>
</lineargradient>
<path class="st3" d="m460.4 1746.2v4.9l593-342.4 276.7-159.8-184.1-182.5-685.6 679.8z"></path>
<defs>
    <path d="m1330.1 883.8l-276.7-159.8s-504.2-291.1-533.8-308.2-59.2-6.7-59.2 29v1255.8c0 26.8 21.1 38.4 46.9 23.5 25.7-14.9 546.1-315.3 546.1-315.3l276.7-159.8s234.8-135.6 266-153.6 28.2-42.8 1.9-56.9c-26.3-14.3-267.9-154.7-267.9-154.7z" id="l"></path>
</defs>
<clippath id="k">
    <use xlink:href="#l"></use>
</clippath>
<lineargradient gradienttransform="matrix(12 0 0 12 -47005 14795)" gradientunits="userSpaceOnUse" id="j" x1="4033.4" x2="4033.4" y1="-1159.3" y2="-1128.9">
    <stop offset="0" stop-color="#F58879"></stop>
    <stop offset=".119" stop-color="#F69079"></stop>
    <stop offset=".713" stop-color="#FCB877"></stop>
    <stop offset="1" stop-color="#FEC874"></stop>
</lineargradient>
<path class="st4" d="m1330.1 883.8l-184.1 182.6 184.1 182.6 316.3-182.6-316.3-182.6z"></path>
<path class="st5" d="m4776.7 1332.1c-25.8 0-49.2-4.8-70.5-14.2-21.3-9.5-39.2-24.1-53.6-43.8h-4.3c2.9 23.1 4.3 45 4.3 65.7v162.7h-59.9v-573h48.7l8.3 54.1h2.9c15.4-21.7 33.3-37.3 53.8-46.9 20.4-9.6 43.9-14.4 70.3-14.4 52.4 0 92.9 17.9 121.4 53.8 28.5 35.8 42.8 86.1 42.8 150.8 0 64.9-14.5 115.4-43.5 151.4-29 35.9-69.2 53.8-120.7 53.8zm-8.7-358.9c-40.4 0-69.6 11.2-87.7 33.6-18 22.4-27.3 58-27.8 106.8v13.3c0 55.6 9.3 95.3 27.8 119.3s48.2 35.9 89.1 35.9c34.2 0 60.9-13.8 80.3-41.5 19.3-27.6 29-65.8 29-114.4 0-49.3-9.7-87.1-29-113.5s-46.5-39.5-81.7-39.5zm311.5 351.7h-59.9v-561.4h59.9v561.4zm344.3 0l-11.9-56.3h-2.9c-19.7 24.8-39.4 41.6-59 50.3-19.6 8.8-44.1 13.2-73.4 13.2-39.2 0-69.9-10.1-92.2-30.3s-33.4-48.9-33.4-86.2c0-79.8 63.9-121.7 191.6-125.6l67.1-2.2v-24.5c0-31-6.7-54-20-68.7-13.3-14.8-34.7-22.2-64-22.2-33 0-70.2 10.1-111.8 30.3l-18.4-45.8c19.5-10.6 40.8-18.9 64.1-24.9 23.2-6 46.5-9 69.8-9 47.1 0 82.1 10.5 104.8 31.4s34.1 54.5 34.1 100.7v269.8h-44.5zm-135.3-42.2c37.3 0 66.5-10.2 87.8-30.7 21.3-20.4 31.9-49.1 31.9-85.9v-35.7l-59.9 2.5c-47.6 1.7-81.9 9.1-103 22.2-21 13.1-31.6 33.5-31.6 61.2 0 21.6 6.5 38.1 19.7 49.4 13.2 11.4 31.6 17 55.1 17zm214.5-353.2h64.2l86.6 225.5c19 51.5 30.8 88.6 35.4 111.5h2.9c3.1-12.3 9.7-33.3 19.7-63s42.6-121 97.9-274h64.2l-169.9 450.3c-16.8 44.5-36.5 76.1-59 94.7s-50.1 27.9-82.8 27.9c-18.3 0-36.3-2-54.1-6.1v-48c13.2 2.9 28 4.3 44.4 4.3 41.1 0 70.5-23.1 88-69.3l22-56.3-159.5-397.5zm-1835.7 36.8c19 15.7 58.7 48.8 58.7 111.7 0 61.2-34.7 90.2-69.5 117.4-10.8 10.7-23.2 22.4-23.2 40.6s12.4 28.1 21.5 35.5l29.8 23.1c36.4 30.6 69.4 58.8 69.4 115.8 0 77.7-75.3 156.3-217.5 156.3-119.9 0-177.8-57-177.8-118.3 0-29.8 14.8-71.9 63.7-100.9 51.2-31.4 120.8-35.5 158-38.1-11.6-14.9-24.8-30.6-24.8-56.2 0-14 4.2-22.3 8.3-32.3-9.1 0.8-18.2 1.7-26.5 1.7-87.6 0-137.3-65.3-137.3-129.8 0-38.1 17.4-80.3 52.9-110.8 47.2-38.9 103.4-45.5 148.1-45.5h170.3l-52.9 29.8h-51.2zm-58.7 367.2c-6.6-0.9-10.8-0.9-19-0.9-7.4 0-52.2 1.7-86.9 13.3-18.2 6.6-71.1 26.4-71.1 85.2 0 58.7 57.1 100.9 145.6 100.9 79.3 0 121.6-38.1 121.6-89.4-0.1-42.2-27.4-64.4-90.2-109.1zm24-157.2c19-19 20.6-45.5 20.6-60.4 0-59.5-35.5-152.2-104.2-152.2-21.5 0-44.7 10.7-57.9 27.3-14 17.4-18.2 39.7-18.2 61.2 0 55.4 32.3 147.2 103.4 147.2 20.7 0.1 43-9.8 56.3-23.1zm-486 143.9c-131.3 0-201.5-102.4-201.5-194.9 0-108.2 88.3-200.6 213.9-200.6 121.3 0 197.3 94.9 197.3 194.9 0.1 97.4-75 200.6-209.7 200.6zm103.2-66.8c19.8-26.4 24.8-59.5 24.8-91.7 0-72.7-34.7-211.4-137.1-211.4-27.2 0-54.5 10.8-74.3 28.1-32.2 28.9-38 65.2-38 100.8 0 81.7 40.5 216.2 140.4 216.2 32.3 0 65.3-15.6 84.2-42zm-550.7 66.8c-131.3 0-201.5-102.4-201.5-194.9 0-108.2 88.4-200.6 213.9-200.6 121.4 0 197.3 94.9 197.3 194.9 0 97.4-75.1 200.6-209.7 200.6zm103.2-66.8c19.8-26.4 24.8-59.5 24.8-91.7 0-72.7-34.7-211.4-137.1-211.4-27.2 0-54.5 10.8-74.3 28.1-32.2 28.9-38 65.2-38 100.8 0 81.7 40.4 216.2 140.4 216.2 32.2 0 65.2-15.6 84.2-42zm-367.8 53.9l-118.7 27.4c-48.2 7.5-91.3 14.1-137 14.1-229.2 0-316.3-168.5-316.3-300.5 0-161 123.7-310.4 335.4-310.4 44.8 0 88 6.6 127 17.4 62.3 17.4 91.3 39 109.6 51.5l-68.9 65.6-29 6.6 20.7-33.2c-28.2-27.4-79.7-78-177.6-78-131.2 0-230 99.7-230 244.9 0 156 112.9 303 293.9 303 53.2 0 80.5-10.8 105.4-20.8v-133.6l-125.3 6.6 66.4-35.7h176l-21.6 20.7c-5.9 5-6.7 6.7-8.3 13.3-0.9 7.5-1.6 31.6-1.6 39.9l-0.1 101.2z"></path>
<path class="st5" d="m3929.7 1283.4c-27.4-2.5-33.1-7.5-33.1-39.9v-469.8c0.2-1.8 0.3-3.6 0.4-5.4 3.3-29 11.6-34 37.4-49h-118.8l-62.3 29.9h63.5v0.4-0.3 512.5c0 16.6-3.3 19.1-22.4 44h147l30.7-18.2c-14.1-1.8-28.3-2.6-42.4-4.2zm337.8 7.6c-9 5-18.1 10.8-27.1 14.8-27.3 12.4-55.3 15.7-80.1 15.7-26.3 0-67.6-1.7-109.7-32.2-58.5-41.3-84-112.2-84-174 0-127.8 103.9-190.4 188.8-190.4 29.7 0 60.2 7.4 85 23.1 41.2 27.2 51.9 62.6 57.6 81.6l-193.7 78.3-63.5 4.9c20.6 104.7 91.5 165.7 169.8 165.7 42 0 72.6-14.8 100.6-28.8l-43.7 41.3zm-77.5-245.7c15.6-5.7 23.9-10.7 23.9-22.2 0-33-37.1-70.9-81.6-70.9-33 0-94.8 25.6-94.8 114.6 0 14 1.7 28.8 2.5 43.7l150-65.2zm157.1-114.7v54.4h-6.6v-54.4h-18v-5.6h42.6v5.6h-18zm74.1 54.4v-54.9h-0.3l-16.8 54.9h-5.2l-16.9-54.9h-0.2v54.9h-6v-60h10.3l15.3 48.5h0.2l15.1-48.5h10.4v60h-5.9z"></path>
<path class="st6" d="m2027.4 576.2h-41.3c0-5.7-3.9-21.7-11.7-48.2h-59.6c-8.1 26-12.1 42.1-12.1 48.2h-38.7c0-3.3 10-30.9 30.1-82.5s30.1-80.1 30.1-85.3h48.7c0 4.9 9.1 32.9 27.3 84.1s27.2 79 27.2 83.7zm-59.5-72.9c-14.7-44.3-22-68.3-22-71.9h-2.1c0 3.3-7.6 27.3-22.8 71.9h46.9zm225.8 72.9h-31.8c0-3.5-11.8-22.1-35.4-55.8-24.7-35.5-38.8-59.8-42.3-72.8h-2.1c2.1 18.8 3.2 35.8 3.2 51 0 21.2 0.6 47.1 1.8 77.6h-31.7c1.3-26.6 1.9-55.9 1.9-87.8 0-31.4-0.6-58.1-1.9-80.1h38.3c0 4.6 10.6 22.7 31.8 54.5 22.6 33.8 35.6 56.7 38.9 68.7h1.9c-2.1-19.2-3.1-36.3-3.1-51.6 0-23.3-0.6-47.2-1.8-71.7h32.2c-1.2 21.3-1.8 48-1.8 80.1 0.1 32.4 0.7 61.7 1.9 87.9zm186.8-89.7c0 24.4-7.8 45.7-23.5 63.9-15.6 18.2-37.6 27.3-65.7 27.3-12.7 0-30.3-0.5-52.6-1.5 1.1-26 1.7-55.2 1.7-87.8 0-31.3-0.6-58-1.7-80.1h22.6c3.7 0 9.2-0.1 16.5-0.4s12.1-0.4 14.3-0.4c31 0 53.5 7.7 67.5 23.2 13.9 15.5 20.9 34.1 20.9 55.8zm-35.2 5.5c0-16.5-4.8-30.4-14.4-41.7s-24.3-16.9-44.1-16.9c-3.7 0-8.8 0.4-15.2 1.2 0.9 17.2 1.3 35.1 1.3 53.9 0 20.5 0.4 40.9 1.3 61.1 5.5 1.1 11.1 1.7 16.8 1.7 18.5 0 32.2-5.7 41.1-17.2 8.7-11.6 13.2-25.6 13.2-42.1zm207.5 84.2h-38.2c-10-30.4-17.6-49.2-22.9-56.3s-13.9-10.7-25.8-10.7c-5 0-9.8 0-14.3 0.1 0 22.1 0.4 44.4 1.2 66.9h-35.8c1.1-26 1.7-55.2 1.7-87.8 0-31.3-0.6-58-1.7-80.1h22.3c2.6 0 8-0.1 16.2-0.4s15.8-0.4 22.8-0.4c39.4 0 59.2 13.5 59.2 40.5 0 21.4-11.3 36.3-33.8 44.7v1.9c8.7 2.4 16.3 9.2 22.8 20.3 6.4 11.2 15.2 31.6 26.3 61.3zm-48.4-118.6c0-17.1-11-25.7-33-25.7-8.1 0-15.2 0.6-21.4 1.8 0.9 13.3 1.4 30.7 1.4 52.1 4.7 0.2 8.7 0.3 12 0.3 27.4 0 41-9.5 41-28.5zm233.2 31.6c0 26.4-8.1 48.3-24.2 65.6-16.2 17.4-36.1 26-59.9 26-22.7 0-41.7-8-57-23.9s-22.9-36.2-22.9-60.8c0-26.4 8.1-48.3 24.2-65.6 16.2-17.4 36.1-26 59.9-26 22.7 0 41.7 7.9 57 23.8 15.2 15.9 22.9 36.2 22.9 60.9zm-35.6 3.7c0-18-4.6-32.5-13.8-43.7s-20.5-16.8-34-16.8c-12.6 0-23.2 5.6-32 16.9s-13.2 25.5-13.2 42.7c0 17.9 4.6 32.4 13.9 43.6 9.2 11.2 20.6 16.8 34 16.8 12.5 0 23.2-5.7 32-17 8.7-11.2 13.1-25.4 13.1-42.5zm108.4 83.3h-36.4c1.1-26.6 1.7-55.9 1.7-87.8 0-31.4-0.6-58.1-1.7-80.1h36.5c-1.1 21.7-1.7 48.3-1.7 80.1 0 32.4 0.5 61.7 1.6 87.8zm186.9-89.7c0 24.4-7.8 45.7-23.5 63.9-15.6 18.2-37.6 27.3-65.7 27.3-12.7 0-30.3-0.5-52.6-1.5 1.1-26 1.7-55.2 1.7-87.8 0-31.3-0.6-58-1.7-80.1h22.6c3.7 0 9.2-0.1 16.5-0.4s12.1-0.4 14.3-0.4c31 0 53.5 7.7 67.5 23.2 13.9 15.5 20.9 34.1 20.9 55.8zm-35.2 5.5c0-16.5-4.8-30.4-14.4-41.7s-24.3-16.9-44.1-16.9c-3.7 0-8.8 0.4-15.2 1.2 0.9 17.2 1.3 35.1 1.3 53.9 0 20.5 0.4 40.9 1.3 61.1 5.5 1.1 11.1 1.7 16.8 1.7 18.5 0 32.2-5.7 41.1-17.2 8.7-11.6 13.2-25.6 13.2-42.1zm283.1 84.2h-41.3c0-5.7-3.9-21.7-11.7-48.2h-59.6c-8.1 26-12.1 42.1-12.1 48.2h-38.8c0-3.3 10-30.9 30.1-82.5s30.1-80.1 30.1-85.3h48.7c0 4.9 9.1 32.9 27.3 84.1s27.3 79 27.3 83.7zm-59.6-72.9c-14.7-44.3-22.1-68.3-22.1-71.9h-2.1c0 3.3-7.6 27.3-22.8 71.9h47zm209.9-51c0 20.5-7.6 35.7-22.9 45.5s-34 14.7-56.1 14.7c-4 0-6.9-0.1-8.6-0.3 0 16.2 0.5 37.5 1.4 63.9h-36.3c1.1-24.8 1.7-54.1 1.7-87.8 0-30.9-0.6-57.6-1.7-80.1h22.4c3.2 0 9.3-0.1 18.3-0.4s16.8-0.4 23.5-0.4c16.3 0 30.1 3.7 41.4 11.1 11.3 7.6 16.9 18.8 16.9 33.8zm-33.2 7.1c0-18.4-12.2-27.6-36.6-27.6-6.1 0-12.6 0.6-19.3 1.9 0.9 16.2 1.4 34.6 1.4 55.2 2.1 0.2 4.6 0.3 7.5 0.3 31.3 0 47-10 47-29.8zm187.8-7.1c0 20.5-7.6 35.7-22.9 45.5s-34 14.7-56.1 14.7c-4 0-6.9-0.1-8.6-0.3 0 16.2 0.5 37.5 1.4 63.9h-36.2c1.1-24.8 1.7-54.1 1.7-87.8 0-30.9-0.6-57.6-1.7-80.1h22.4c3.2 0 9.3-0.1 18.3-0.4s16.8-0.4 23.5-0.4c16.3 0 30.1 3.7 41.4 11.1 11.2 7.6 16.8 18.8 16.8 33.8zm-33.2 7.1c0-18.4-12.2-27.6-36.6-27.6-6.1 0-12.6 0.6-19.3 1.9 0.9 16.2 1.4 34.6 1.4 55.2 2.1 0.2 4.6 0.3 7.5 0.3 31.3 0 47-10 47-29.8zm286 29.8c0 26.4-8.1 48.3-24.2 65.6-16.2 17.4-36.1 26-59.9 26-22.7 0-41.7-8-57-23.9s-22.9-36.2-22.9-60.8c0-26.4 8.1-48.3 24.2-65.6 16.2-17.4 36.1-26 59.9-26 22.7 0 41.7 7.9 57 23.8s22.9 36.2 22.9 60.9zm-35.6 3.7c0-18-4.6-32.5-13.8-43.7s-20.5-16.8-34-16.8c-12.6 0-23.2 5.6-32 16.9s-13.2 25.5-13.2 42.7c0 17.9 4.6 32.4 13.9 43.6 9.2 11.2 20.6 16.8 34 16.8 12.6 0 23.2-5.7 32-17 8.7-11.2 13.1-25.4 13.1-42.5zm210.3 83.3h-31.8c0-3.5-11.8-22.1-35.4-55.8-24.7-35.5-38.8-59.8-42.3-72.8h-2.1c2.1 18.8 3.2 35.8 3.2 51 0 21.2 0.6 47.1 1.8 77.6h-31.7c1.3-26.6 1.9-55.9 1.9-87.8 0-31.4-0.6-58.1-1.9-80.1h38.3c0 4.6 10.6 22.7 31.8 54.5 22.6 33.8 35.6 56.7 38.9 68.7h1.9c-2.1-19.2-3.1-36.3-3.1-51.6 0-23.3-0.6-47.2-1.8-71.7h32.2c-1.2 21.3-1.8 48-1.8 80.1 0.1 32.4 0.7 61.7 1.9 87.9z"></path></svg>
