<svg xmlns="http://www.w3.org/2000/svg" xmlns:xlink="http://www.w3.org/1999/xlink" x="0px" y="0px" width="32" height="32" viewBox="0 0 32 32" style="
"><g class="nc-icon-wrapper" fill="#fff"><circle fill="#fff" cx="15" cy="17" r="4"></circle> <path fill="#fff" d="M31,5H15.5l-2.7-3.6C12.611,1.148,12.314,1,12,1H1C0.447,1,0,1.447,0,2v28c0,0.553,0.447,1,1,1h30 c0.553,0,1-0.447,1-1V6C32,5.447,31.553,5,31,5z M22.293,25.707l-3.822-3.822C17.49,22.584,16.294,23,15,23c-3.309,0-6-2.691-6-6 s2.691-6,6-6s6,2.691,6,6c0,1.294-0.416,2.49-1.115,3.471l3.822,3.822L22.293,25.707z"></path></g></svg>
