<svg xmlns="http://www.w3.org/2000/svg" xmlns:xlink="http://www.w3.org/1999/xlink" width="295.93" height="234.025" viewBox="0 0 295.93 234.025"><defs><linearGradient id="a" y1="0.05" x2="1" y2="0.052" gradientUnits="objectBoundingBox"><stop offset="0" stop-color="#d2344d"/><stop offset="0.5" stop-color="#dc3bc3"/><stop offset="1" stop-color="#618dc9"/></linearGradient></defs><g transform="translate(-66 -236)"><g transform="translate(66 248.068)" opacity="0.193"><g transform="translate(0 0)"><path d="M20.2,20.437,134.367,218.173a11.1,11.1,0,0,0,19.229,0L267.661,20.611a11.458,11.458,0,0,0-.6-12.7,11.121,11.121,0,0,0-8.8-4.329H29.7A11.11,11.11,0,0,0,18.781,16.726,11.51,11.51,0,0,0,20.2,20.437Zm114.485,95.278L137.5,184a3.763,3.763,0,0,1-7.017,2.037L49.489,45.767a3.676,3.676,0,0,1,5.381-4.785l66.586,49.66A32.971,32.971,0,0,1,134.686,115.715ZM59.07,16.278H229a5.411,5.411,0,0,1,2.924,9.964l-70.2,45.085a32.843,32.843,0,0,1-35.489,0l-70.111-45A5.457,5.457,0,0,1,59.07,16.278ZM166.744,90.467l66.4-49.514a3.661,3.661,0,0,1,5.358,4.766L157.477,186.067a3.755,3.755,0,0,1-7-2.032l2.791-68.025A33.58,33.58,0,0,1,166.744,90.467Z" transform="translate(-17.697 -2.677)" fill="url(#a)"/><path d="M144.156,224.789a12.052,12.052,0,0,1-10.418-6.008L19.572,21.043a12.445,12.445,0,0,1-1.528-4A12.015,12.015,0,0,1,29.855,2.832H258.417a11.975,11.975,0,0,1,9.517,4.677,12.43,12.43,0,0,1,.665,13.709L154.533,218.78a12.024,12.024,0,0,1-10.377,6.008ZM21.139,20.138,135.306,217.875a10.2,10.2,0,0,0,17.66,0L267.031,20.313A10.6,10.6,0,0,0,266.5,8.62a10.173,10.173,0,0,0-8.085-3.978H29.855A10.2,10.2,0,0,0,19.826,16.723a10.662,10.662,0,0,0,1.313,3.415ZM154.422,189.013a4.8,4.8,0,0,1-1.341-.193,4.592,4.592,0,0,1-3.357-4.668l2.791-68.025A34.347,34.347,0,0,1,166.357,89.9l66.4-49.514a4.566,4.566,0,0,1,6.683,5.943L158.415,186.674A4.586,4.586,0,0,1,154.422,189.013ZM166.9,90.622l.542.725A32.542,32.542,0,0,0,154.323,116.2l-2.791,68.024a2.85,2.85,0,0,0,5.316,1.543L237.875,45.421a2.756,2.756,0,0,0-4.034-3.588l-66.4,49.514Zm-33.05,98.365a4.592,4.592,0,0,1-4-2.344L48.859,46.376a4.582,4.582,0,0,1,6.707-5.964l66.586,49.66a33.736,33.736,0,0,1,13.593,25.761l2.811,68.285a4.6,4.6,0,0,1-3.364,4.676A4.858,4.858,0,0,1,133.848,188.987ZM52.84,41.286a2.842,2.842,0,0,0-1.855.728,2.692,2.692,0,0,0-.559,3.457l80.99,140.267a2.858,2.858,0,0,0,5.33-1.546l-2.811-68.286a31.931,31.931,0,0,0-12.867-24.384L54.484,41.862A2.724,2.724,0,0,0,52.84,41.286Zm91.289,36.293A33.73,33.73,0,0,1,125.9,72.248l-70.11-45a6.363,6.363,0,0,1,3.437-11.718H229.156a6.316,6.316,0,0,1,3.413,11.631l-70.2,45.085A33.73,33.73,0,0,1,144.129,77.579Zm-84.9-60.241a4.552,4.552,0,0,0-2.458,8.383l70.109,45a32.016,32.016,0,0,0,34.511,0l70.2-45.085a4.506,4.506,0,0,0-2.435-8.3Z" transform="translate(-17.851 -2.832)" fill="url(#a)"/><path d="M144.1,224.552a11.685,11.685,0,0,1-10.225-5.9L19.6,20.711A11.808,11.808,0,0,1,29.826,3H258.388a11.807,11.807,0,0,1,10.225,17.711L154.325,218.647A11.685,11.685,0,0,1,144.1,224.552ZM20.819,20.006,135.1,217.944a10.4,10.4,0,0,0,18.006,0L267.387,20.006a10.4,10.4,0,0,0-9-15.6H29.826a10.4,10.4,0,0,0-9,15.6ZM133.064,191.834,45.536,40.245A2.955,2.955,0,0,1,49.862,36.4L133.725,98.94a2.952,2.952,0,0,1,1.186,2.247l3.664,89.048A2.955,2.955,0,0,1,133.064,191.834ZM50.181,45.467l81.238,140.7a2.955,2.955,0,0,0,5.511-1.6L133.591,103.4a6.091,6.091,0,0,0-2.442-4.629L54.506,41.619A2.955,2.955,0,0,0,50.181,45.467Zm99.457,144.77,3.658-89.05a2.955,2.955,0,0,1,1.186-2.247l83.852-62.524a2.955,2.955,0,0,1,4.325,3.847L155.15,191.835A2.956,2.956,0,0,1,149.638,190.236Zm4.978-86.806-3.333,81.142a2.956,2.956,0,0,0,5.513,1.6l81.22-140.685a2.955,2.955,0,0,0-4.325-3.846L157.075,98.768A6.129,6.129,0,0,0,154.615,103.43ZM144.1,83.682l-.381-.241L47.025,21.371A3.082,3.082,0,0,1,48.689,15.7H239.9a2.955,2.955,0,0,1,1.6,5.441ZM51.47,22.548l89.278,57.306a6.206,6.206,0,0,0,6.7,0l83.9-53.881a4.815,4.815,0,0,0-2.6-8.866H53.066A2.956,2.956,0,0,0,51.47,22.548Z" transform="translate(-17.818 -2.798)" fill="url(#a)"/></g></g><g transform="translate(109.443 248.068)" opacity="0.193"><g transform="translate(0 0)"><path d="M20.2,20.437,134.367,218.173a11.1,11.1,0,0,0,19.229,0L267.661,20.611a11.458,11.458,0,0,0-.6-12.7,11.121,11.121,0,0,0-8.8-4.329H29.7A11.11,11.11,0,0,0,18.781,16.726,11.51,11.51,0,0,0,20.2,20.437Zm114.485,95.278L137.5,184a3.763,3.763,0,0,1-7.017,2.037L49.489,45.767a3.676,3.676,0,0,1,5.381-4.785l66.586,49.66A32.971,32.971,0,0,1,134.686,115.715ZM59.07,16.278H229a5.411,5.411,0,0,1,2.924,9.964l-70.2,45.085a32.843,32.843,0,0,1-35.489,0l-70.111-45A5.457,5.457,0,0,1,59.07,16.278ZM166.744,90.467l66.4-49.514a3.661,3.661,0,0,1,5.358,4.766L157.477,186.067a3.755,3.755,0,0,1-7-2.032l2.791-68.025A33.58,33.58,0,0,1,166.744,90.467Z" transform="translate(-17.697 -2.677)" fill="url(#a)"/><path d="M144.156,224.789a12.052,12.052,0,0,1-10.418-6.008L19.572,21.043a12.445,12.445,0,0,1-1.528-4A12.015,12.015,0,0,1,29.855,2.832H258.417a11.975,11.975,0,0,1,9.517,4.677,12.43,12.43,0,0,1,.665,13.709L154.533,218.78a12.024,12.024,0,0,1-10.377,6.008ZM21.139,20.138,135.306,217.875a10.2,10.2,0,0,0,17.66,0L267.031,20.313A10.6,10.6,0,0,0,266.5,8.62a10.173,10.173,0,0,0-8.085-3.978H29.855A10.2,10.2,0,0,0,19.826,16.723a10.662,10.662,0,0,0,1.313,3.415ZM154.422,189.013a4.8,4.8,0,0,1-1.341-.193,4.592,4.592,0,0,1-3.357-4.668l2.791-68.025A34.347,34.347,0,0,1,166.357,89.9l66.4-49.514a4.566,4.566,0,0,1,6.683,5.943L158.415,186.674A4.586,4.586,0,0,1,154.422,189.013ZM166.9,90.622l.542.725A32.542,32.542,0,0,0,154.323,116.2l-2.791,68.024a2.85,2.85,0,0,0,5.316,1.543L237.875,45.421a2.756,2.756,0,0,0-4.034-3.588l-66.4,49.514Zm-33.05,98.365a4.592,4.592,0,0,1-4-2.344L48.859,46.376a4.582,4.582,0,0,1,6.707-5.964l66.586,49.66a33.736,33.736,0,0,1,13.593,25.761l2.811,68.285a4.6,4.6,0,0,1-3.364,4.676A4.858,4.858,0,0,1,133.848,188.987ZM52.84,41.286a2.842,2.842,0,0,0-1.855.728,2.692,2.692,0,0,0-.559,3.457l80.99,140.267a2.858,2.858,0,0,0,5.33-1.546l-2.811-68.286a31.931,31.931,0,0,0-12.867-24.384L54.484,41.862A2.724,2.724,0,0,0,52.84,41.286Zm91.289,36.293A33.73,33.73,0,0,1,125.9,72.248l-70.11-45a6.363,6.363,0,0,1,3.437-11.718H229.156a6.316,6.316,0,0,1,3.413,11.631l-70.2,45.085A33.73,33.73,0,0,1,144.129,77.579Zm-84.9-60.241a4.552,4.552,0,0,0-2.458,8.383l70.109,45a32.016,32.016,0,0,0,34.511,0l70.2-45.085a4.506,4.506,0,0,0-2.435-8.3Z" transform="translate(-17.851 -2.832)" fill="url(#a)"/><path d="M144.1,224.552a11.685,11.685,0,0,1-10.225-5.9L19.6,20.711A11.808,11.808,0,0,1,29.826,3H258.388a11.807,11.807,0,0,1,10.225,17.711L154.325,218.647A11.685,11.685,0,0,1,144.1,224.552ZM20.819,20.006,135.1,217.944a10.4,10.4,0,0,0,18.006,0L267.387,20.006a10.4,10.4,0,0,0-9-15.6H29.826a10.4,10.4,0,0,0-9,15.6ZM133.064,191.834,45.536,40.245A2.955,2.955,0,0,1,49.862,36.4L133.725,98.94a2.952,2.952,0,0,1,1.186,2.247l3.664,89.048A2.955,2.955,0,0,1,133.064,191.834ZM50.181,45.467l81.238,140.7a2.955,2.955,0,0,0,5.511-1.6L133.591,103.4a6.091,6.091,0,0,0-2.442-4.629L54.506,41.619A2.955,2.955,0,0,0,50.181,45.467Zm99.457,144.77,3.658-89.05a2.955,2.955,0,0,1,1.186-2.247l83.852-62.524a2.955,2.955,0,0,1,4.325,3.847L155.15,191.835A2.956,2.956,0,0,1,149.638,190.236Zm4.978-86.806-3.333,81.142a2.956,2.956,0,0,0,5.513,1.6l81.22-140.685a2.955,2.955,0,0,0-4.325-3.846L157.075,98.768A6.129,6.129,0,0,0,154.615,103.43ZM144.1,83.682l-.381-.241L47.025,21.371A3.082,3.082,0,0,1,48.689,15.7H239.9a2.955,2.955,0,0,1,1.6,5.441ZM51.47,22.548l89.278,57.306a6.206,6.206,0,0,0,6.7,0l83.9-53.881a4.815,4.815,0,0,0-2.6-8.866H53.066A2.956,2.956,0,0,0,51.47,22.548Z" transform="translate(-17.818 -2.798)" fill="url(#a)"/></g></g><g transform="translate(86.515 236)"><g transform="translate(0 0)"><path d="M20.2,20.437,134.367,218.173a11.1,11.1,0,0,0,19.229,0L267.661,20.611a11.458,11.458,0,0,0-.6-12.7,11.121,11.121,0,0,0-8.8-4.329H29.7A11.11,11.11,0,0,0,18.781,16.726,11.51,11.51,0,0,0,20.2,20.437Zm114.485,95.278L137.5,184a3.763,3.763,0,0,1-7.017,2.037L49.489,45.767a3.676,3.676,0,0,1,5.381-4.785l66.586,49.66A32.971,32.971,0,0,1,134.686,115.715ZM59.07,16.278H229a5.411,5.411,0,0,1,2.924,9.964l-70.2,45.085a32.843,32.843,0,0,1-35.489,0l-70.111-45A5.457,5.457,0,0,1,59.07,16.278ZM166.744,90.467l66.4-49.514a3.661,3.661,0,0,1,5.358,4.766L157.477,186.067a3.755,3.755,0,0,1-7-2.032l2.791-68.025A33.58,33.58,0,0,1,166.744,90.467Z" transform="translate(-17.697 -2.677)" fill="url(#a)"/><path d="M144.156,224.789a12.052,12.052,0,0,1-10.418-6.008L19.572,21.043a12.445,12.445,0,0,1-1.528-4A12.015,12.015,0,0,1,29.855,2.832H258.417a11.975,11.975,0,0,1,9.517,4.677,12.43,12.43,0,0,1,.665,13.709L154.533,218.78a12.024,12.024,0,0,1-10.377,6.008ZM21.139,20.138,135.306,217.875a10.2,10.2,0,0,0,17.66,0L267.031,20.313A10.6,10.6,0,0,0,266.5,8.62a10.173,10.173,0,0,0-8.085-3.978H29.855A10.2,10.2,0,0,0,19.826,16.723a10.662,10.662,0,0,0,1.313,3.415ZM154.422,189.013a4.8,4.8,0,0,1-1.341-.193,4.592,4.592,0,0,1-3.357-4.668l2.791-68.025A34.347,34.347,0,0,1,166.357,89.9l66.4-49.514a4.566,4.566,0,0,1,6.683,5.943L158.415,186.674A4.586,4.586,0,0,1,154.422,189.013ZM166.9,90.622l.542.725A32.542,32.542,0,0,0,154.323,116.2l-2.791,68.024a2.85,2.85,0,0,0,5.316,1.543L237.875,45.421a2.756,2.756,0,0,0-4.034-3.588l-66.4,49.514Zm-33.05,98.365a4.592,4.592,0,0,1-4-2.344L48.859,46.376a4.582,4.582,0,0,1,6.707-5.964l66.586,49.66a33.736,33.736,0,0,1,13.593,25.761l2.811,68.285a4.6,4.6,0,0,1-3.364,4.676A4.858,4.858,0,0,1,133.848,188.987ZM52.84,41.286a2.842,2.842,0,0,0-1.855.728,2.692,2.692,0,0,0-.559,3.457l80.99,140.267a2.858,2.858,0,0,0,5.33-1.546l-2.811-68.286a31.931,31.931,0,0,0-12.867-24.384L54.484,41.862A2.724,2.724,0,0,0,52.84,41.286Zm91.289,36.293A33.73,33.73,0,0,1,125.9,72.248l-70.11-45a6.363,6.363,0,0,1,3.437-11.718H229.156a6.316,6.316,0,0,1,3.413,11.631l-70.2,45.085A33.73,33.73,0,0,1,144.129,77.579Zm-84.9-60.241a4.552,4.552,0,0,0-2.458,8.383l70.109,45a32.016,32.016,0,0,0,34.511,0l70.2-45.085a4.506,4.506,0,0,0-2.435-8.3Z" transform="translate(-17.851 -2.832)" fill="url(#a)"/><path d="M144.1,224.552a11.685,11.685,0,0,1-10.225-5.9L19.6,20.711A11.808,11.808,0,0,1,29.826,3H258.388a11.807,11.807,0,0,1,10.225,17.711L154.325,218.647A11.685,11.685,0,0,1,144.1,224.552ZM20.819,20.006,135.1,217.944a10.4,10.4,0,0,0,18.006,0L267.387,20.006a10.4,10.4,0,0,0-9-15.6H29.826a10.4,10.4,0,0,0-9,15.6ZM133.064,191.834,45.536,40.245A2.955,2.955,0,0,1,49.862,36.4L133.725,98.94a2.952,2.952,0,0,1,1.186,2.247l3.664,89.048A2.955,2.955,0,0,1,133.064,191.834ZM50.181,45.467l81.238,140.7a2.955,2.955,0,0,0,5.511-1.6L133.591,103.4a6.091,6.091,0,0,0-2.442-4.629L54.506,41.619A2.955,2.955,0,0,0,50.181,45.467Zm99.457,144.77,3.658-89.05a2.955,2.955,0,0,1,1.186-2.247l83.852-62.524a2.955,2.955,0,0,1,4.325,3.847L155.15,191.835A2.956,2.956,0,0,1,149.638,190.236Zm4.978-86.806-3.333,81.142a2.956,2.956,0,0,0,5.513,1.6l81.22-140.685a2.955,2.955,0,0,0-4.325-3.846L157.075,98.768A6.129,6.129,0,0,0,154.615,103.43ZM144.1,83.682l-.381-.241L47.025,21.371A3.082,3.082,0,0,1,48.689,15.7H239.9a2.955,2.955,0,0,1,1.6,5.441ZM51.47,22.548l89.278,57.306a6.206,6.206,0,0,0,6.7,0l83.9-53.881a4.815,4.815,0,0,0-2.6-8.866H53.066A2.956,2.956,0,0,0,51.47,22.548Z" transform="translate(-17.818 -2.798)" fill="url(#a)"/></g></g></g></svg>